<?xml version="1.0" standalone="no"?>
<!DOCTYPE svg PUBLIC "-//W3C//DTD SVG 20010904//EN"
 "http://www.w3.org/TR/2001/REC-SVG-20010904/DTD/svg10.dtd">
<svg version="1.0" xmlns="http://www.w3.org/2000/svg"
 width="300.000000pt" height="195.000000pt" viewBox="0 0 300.000000 195.000000"
 preserveAspectRatio="xMidYMid meet">
<metadata>
Created by potrace 1.10, written by Peter Selinger 2001-2011
</metadata>
<g transform="translate(0.000000,195.000000) scale(0.100000,-0.100000)"
fill="#000000" stroke="none">
<path d="M0 975 l0 -975 1500 0 1500 0 0 975 0 975 -1500 0 -1500 0 0 -975z
m2990 0 l0 -965 -1490 0 -1490 0 0 965 0 965 1490 0 1490 0 0 -965z"/>
<path d="M1440 1753 c-56 -38 -72 -91 -45 -147 34 -71 132 -90 185 -37 37 36
46 72 31 122 -21 69 -113 102 -171 62z m115 -48 c50 -49 15 -125 -57 -125 -30
0 -78 41 -78 67 0 21 28 70 42 76 32 13 70 6 93 -18z"/>
<path d="M1200 1513 l0 -59 125 -50 125 -51 0 36 c-1 35 -3 38 -117 106 -64
39 -120 72 -125 73 -4 2 -8 -23 -8 -55z m92 -35 c16 -7 28 -16 28 -20 0 -12
-74 18 -78 32 -5 14 0 12 50 -12z"/>
<path d="M1670 1496 c-108 -68 -115 -75 -118 -108 l-3 -35 125 50 126 50 0 58
c0 33 -3 59 -7 58 -5 0 -60 -33 -123 -73z m90 -6 c0 -12 -53 -40 -77 -40 -11
0 -3 9 22 25 44 27 55 30 55 15z"/>
<path d="M803 1498 c-89 -142 -133 -295 -133 -469 0 -146 22 -238 90 -376 101
-205 301 -368 530 -430 91 -25 329 -25 420 0 149 40 286 124 396 239 152 160
224 343 224 568 0 132 -22 241 -70 347 -31 69 -90 167 -96 160 -2 -2 15 -37
37 -79 56 -109 79 -206 79 -343 0 -273 -121 -502 -345 -651 -405 -269 -947
-115 -1149 328 -99 216 -94 461 15 673 42 83 43 97 2 33z m1386 -865 c-45 -79
-43 -76 -142 -175 -72 -72 -103 -94 -175 -129 -48 -23 -94 -45 -102 -49 -15
-7 -76 -21 -170 -38 -98 -17 -245 -3 -353 35 -150 52 -257 126 -360 248 -58
69 -114 165 -96 165 5 0 9 -4 9 -8 0 -29 162 -195 242 -248 74 -50 176 -95
258 -114 30 -7 69 -16 85 -20 40 -9 208 -4 270 9 82 16 170 48 232 82 111 61
236 174 301 272 38 57 39 36 1 -30z"/>
<path d="M1086 1354 l1 -96 172 -59 c95 -32 176 -61 182 -64 5 -4 9 29 9 82
l0 88 -176 70 c-97 39 -179 71 -183 73 -3 1 -6 -41 -5 -94z m66 37 c13 -5 73
-28 133 -52 61 -23 116 -47 123 -52 13 -10 17 -93 4 -101 -9 -5 -270 80 -287
94 -10 8 -13 72 -6 113 1 9 5 9 33 -2z"/>
<path d="M1728 1377 l-178 -72 0 -86 0 -87 183 63 182 63 3 96 c1 53 -1 96 -5
95 -4 0 -88 -33 -185 -72z m152 -36 c0 -44 -16 -61 -75 -80 -22 -7 -53 -19
-70 -26 -48 -21 -133 -44 -139 -38 -3 4 -6 23 -6 43 0 32 5 39 33 53 59 29
241 96 249 91 4 -3 8 -22 8 -43z"/>
<path d="M910 1084 c0 -183 1 -196 18 -189 9 4 131 49 270 100 l254 92 -229
78 c-125 43 -247 87 -270 96 l-43 18 0 -195z m132 104 c35 -12 110 -38 168
-58 58 -20 105 -40 105 -45 0 -13 -348 -136 -358 -126 -6 6 -12 188 -7 246 0
10 31 4 92 -17z"/>
<path d="M1985 1238 c-44 -16 -156 -56 -248 -88 -93 -32 -171 -60 -173 -63 -2
-2 93 -38 211 -81 119 -42 238 -85 265 -96 l50 -20 0 190 c0 146 -3 190 -12
189 -7 -1 -49 -15 -93 -31z m71 -296 c-5 -4 -297 98 -375 131 l-34 14 69 26
c38 14 87 31 109 38 22 6 49 16 60 20 11 5 54 20 95 33 l75 24 3 -140 c1 -78
0 -143 -2 -146z"/>
<path d="M1410 1018 c0 -2 -1 -119 -3 -261 l-2 -257 98 0 97 0 0 260 0 260
-95 0 c-52 0 -95 -1 -95 -2z m145 -258 l0 -215 -55 0 -55 0 -3 205 c-1 112 0
210 3 218 3 9 21 12 57 10 l53 -3 0 -215z"/>
<path d="M1228 948 l-108 -41 0 -151 0 -151 115 -47 115 -46 0 239 c0 131 -3
239 -7 238 -5 0 -56 -19 -115 -41z m88 -191 c0 -140 -2 -169 -15 -176 -8 -5
-22 -5 -30 -1 -9 5 -37 18 -63 29 l-47 21 -3 116 c-2 68 1 123 7 131 13 17
105 53 130 50 19 -2 20 -10 21 -170z"/>
<path d="M1650 750 c0 -133 4 -240 8 -238 5 2 56 23 115 47 l107 44 0 152 0
152 -102 38 c-57 21 -109 40 -115 42 -10 4 -13 -47 -13 -237z m124 159 c31
-11 59 -25 63 -32 4 -6 8 -60 9 -119 2 -89 0 -110 -14 -126 -20 -22 -120 -64
-133 -56 -5 3 -9 84 -9 180 0 197 -6 187 84 153z"/>
</g>
</svg>
