<?xml version="1.0" standalone="no"?>
<!DOCTYPE svg PUBLIC "-//W3C//DTD SVG 20010904//EN"
 "http://www.w3.org/TR/2001/REC-SVG-20010904/DTD/svg10.dtd">
<svg version="1.0" xmlns="http://www.w3.org/2000/svg"
 width="300.000000pt" height="195.000000pt" viewBox="0 0 300.000000 195.000000"
 preserveAspectRatio="xMidYMid meet">
<metadata>
Created by potrace 1.10, written by Peter Selinger 2001-2011
</metadata>
<g transform="translate(0.000000,195.000000) scale(0.100000,-0.100000)"
fill="#000000" stroke="none">
<path d="M10 975 l0 -965 1490 0 1490 0 0 965 0 965 -1490 0 -1490 0 0 -965z
m1557 775 c36 -22 60 -82 49 -125 -4 -15 -20 -40 -36 -56 -53 -53 -151 -34
-185 37 -50 106 69 207 172 144z m-234 -255 c114 -68 116 -71 117 -106 l0 -36
-125 51 -125 50 0 59 c0 32 4 57 8 55 5 -1 61 -34 125 -73z m467 16 l0 -59
-126 -49 -125 -50 3 35 c3 33 10 40 118 108 63 40 118 73 123 73 4 1 7 -25 7
-58z m-1004 -54 c-57 -113 -80 -215 -79 -347 0 -122 20 -211 69 -318 110 -241
335 -412 595 -453 87 -14 229 -7 314 16 82 21 228 94 297 149 125 100 229 263
269 425 18 70 21 106 17 215 -5 146 -31 246 -89 340 -16 27 -28 51 -25 53 2 2
20 -23 40 -55 90 -148 126 -278 126 -452 0 -240 -75 -418 -249 -590 -83 -83
-110 -103 -201 -148 -149 -74 -205 -87 -380 -87 -175 0 -231 13 -380 87 -91
45 -118 65 -201 148 -101 99 -157 184 -198 294 -77 209 -69 452 22 649 32 68
83 157 91 157 2 0 -15 -37 -38 -83z m478 -82 l176 -70 0 -86 0 -86 -182 62
-183 62 -3 98 c-2 55 1 95 6 93 5 -1 89 -34 186 -73z m644 -21 l-3 -96 -182
-63 -183 -63 0 87 0 86 178 72 c97 39 181 71 185 72 4 1 6 -42 5 -95z m-664
-199 l198 -68 -203 -74 c-112 -40 -234 -84 -271 -98 l-68 -25 0 194 0 194 73
-27 c39 -15 161 -58 271 -96z m836 -74 l0 -189 -92 33 c-51 18 -173 62 -271
97 l-177 64 137 48 c76 26 192 66 258 90 66 24 126 44 133 45 9 1 12 -43 12
-188z m-490 -321 l0 -260 -97 0 -98 0 0 260 0 260 98 0 97 0 0 -260z m-250 -9
l0 -239 -115 46 -115 47 0 151 0 151 108 41 c59 22 110 41 115 41 4 1 7 -107
7 -238z m428 194 l102 -37 0 -153 0 -153 -67 -27 c-38 -15 -89 -36 -115 -46
l-48 -19 0 241 c0 189 3 240 13 236 6 -2 58 -21 115 -42z"/>
<path d="M1470 1743 c-32 -12 -60 -56 -60 -94 0 -29 6 -43 31 -63 34 -29 80
-34 99 -11 7 8 16 13 20 10 11 -7 30 41 30 75 0 54 -70 103 -120 83z"/>
<path d="M1230 1499 c0 -24 22 -49 43 -49 7 0 17 -3 21 -7 18 -18 101 -42 110
-33 7 7 3 13 -12 16 -12 4 -22 10 -22 14 0 4 -22 19 -50 34 -27 15 -52 31 -55
36 -11 18 -35 10 -35 -11z"/>
<path d="M1720 1499 c-77 -47 -140 -91 -140 -99 0 -7 66 16 173 58 19 8 27 19
27 37 0 31 -14 31 -60 4z"/>
<path d="M692 1000 c0 -14 2 -19 5 -12 2 6 2 18 0 25 -3 6 -5 1 -5 -13z"/>
<path d="M2292 950 c0 -14 2 -19 5 -12 2 6 2 18 0 25 -3 6 -5 1 -5 -13z"/>
<path d="M695 950 c3 -5 8 -10 11 -10 2 0 4 5 4 10 0 6 -5 10 -11 10 -5 0 -7
-4 -4 -10z"/>
<path d="M2285 910 c-3 -5 -3 -10 2 -10 4 0 3 -4 -2 -8 -18 -12 -35 -80 -21
-86 6 -2 4 -5 -4 -5 -9 -1 -24 -21 -35 -46 -11 -25 -23 -45 -27 -45 -5 0 -8
-7 -8 -15 0 -8 -5 -15 -11 -15 -5 0 -8 -4 -5 -9 3 -5 -1 -14 -9 -21 -8 -7 -15
-16 -15 -20 0 -13 -111 -119 -169 -163 -57 -42 -201 -121 -201 -111 0 4 -6 2
-12 -3 -7 -6 -53 -18 -103 -28 -103 -20 -307 -16 -385 8 -67 21 -220 97 -264
131 -53 42 -156 142 -156 153 0 4 -12 22 -26 38 -26 30 -89 157 -100 202 -11
42 -22 33 -19 -15 2 -27 15 -74 31 -108 15 -32 28 -61 29 -64 0 -3 13 -24 28
-47 15 -24 27 -46 27 -51 0 -12 155 -172 167 -172 6 0 13 -3 15 -7 11 -27 191
-128 208 -118 6 3 10 2 10 -2 0 -16 134 -45 228 -51 92 -5 237 12 248 30 3 4
9 6 14 3 15 -9 157 54 225 101 69 47 168 134 161 142 -3 2 11 17 30 34 19 17
34 38 34 48 0 10 7 23 15 30 31 26 108 209 105 247 -1 10 -1 20 0 23 4 12 8
40 5 40 -2 0 -7 -4 -10 -10z m-1558 -82 c-3 -8 -6 -5 -6 6 -1 11 2 17 5 13 3
-3 4 -12 1 -19z"/>
<path d="M1112 1344 l3 -68 65 -23 c36 -13 85 -30 110 -39 25 -9 56 -18 70
-21 14 -2 29 -8 35 -14 24 -24 35 -8 35 50 l0 58 -47 18 c-27 9 -61 23 -78 30
-70 31 -112 47 -135 55 -14 4 -33 11 -43 15 -16 7 -18 2 -15 -61z"/>
<path d="M1830 1390 c-30 -11 -56 -20 -58 -20 -2 0 0 -5 4 -12 4 -7 3 -8 -5
-4 -10 7 -99 -20 -111 -33 -3 -4 -9 -6 -15 -6 -5 -1 -23 -7 -38 -15 -26 -13
-28 -17 -25 -69 3 -52 5 -56 26 -53 13 2 40 11 60 19 20 9 43 18 51 19 46 9
61 16 55 26 -4 7 -3 8 5 4 6 -4 34 0 61 9 l50 17 0 69 c0 38 -1 69 -2 69 -2
-1 -28 -10 -58 -20z"/>
<path d="M930 1084 l0 -156 25 6 c13 3 37 11 52 18 15 6 34 12 40 14 7 1 46
14 85 29 40 15 98 36 128 47 103 37 110 40 105 48 -2 4 -39 17 -82 30 -43 12
-82 25 -88 29 -5 3 -12 6 -15 7 -3 0 -18 6 -34 13 -16 6 -38 9 -50 6 -14 -4
-17 -3 -8 3 11 8 -29 25 -88 38 -3 0 -18 6 -33 12 -16 7 -30 12 -33 12 -2 0
-4 -70 -4 -156z"/>
<path d="M1990 1214 c-19 -7 -104 -37 -188 -66 -85 -29 -154 -57 -154 -63 0
-5 36 -21 79 -36 43 -14 92 -31 108 -38 17 -7 68 -26 115 -41 47 -16 93 -32
103 -35 16 -7 17 4 17 144 0 150 0 151 -22 150 -13 -1 -39 -7 -58 -15z"/>
<path d="M1430 760 l0 -230 70 0 70 0 0 230 0 230 -69 0 -70 0 -1 -230z"/>
<path d="M1218 922 c-78 -30 -75 -21 -70 -190 l3 -113 32 -14 c18 -7 49 -21
70 -30 72 -31 72 -33 75 180 l3 191 -23 1 c-13 0 -53 -11 -90 -25z"/>
<path d="M1680 750 l0 -199 28 9 c49 14 117 43 129 54 8 7 13 55 14 138 2 103
0 129 -13 142 -9 8 -18 13 -21 10 -2 -3 -20 4 -40 15 -19 11 -49 22 -66 24
l-31 5 0 -198z"/>
</g>
</svg>
